<svg xmlns="http://www.w3.org/2000/svg" width="800" height="500" viewBox="0 0 800 500" role="img" aria-labelledby="logo-title logo-description">
  <title id="logo-title">Nolle Studios</title>
  <desc id="logo-description">Black rectangular logo with green, red, and blue squares; Nolle is set along the bottom and Studios reads upward at the right.</desc>
  <rect width="800" height="500" fill="#000"/>
  <g id="color-blocks">
    <path fill="#5ef50d" d="M0 0h100v100H0z M400 200h100v100H400z"/>
    <path fill="#ff1818" d="M200 100h100v100H200z M500 200h100v100H500z"/>
    <path fill="#2a35ff" d="M0 200h100v100H0z M500 100h100v100H500z M600 400h100v100H600z"/>
  </g>
  <g id="nolle" fill="#fff" transform="matrix(0.06787109 0 0 -0.06787109 21.9956 478.6426)">
    <path transform="translate(0.0000)" d="M1155 1262 975 1288V1341H1432V1288L1260 1262V0H1163L336 1206V80L516 53V0H59V53L231 80V1262L59 1288V1341H465L1155 348Z"/>
    <path transform="translate(1504.4402)" d="M946 475Q946 -20 506 -20Q294 -20 186.0 107.0Q78 234 78 475Q78 713 186.0 839.0Q294 965 514 965Q728 965 837.0 841.5Q946 718 946 475ZM766 475Q766 691 703.0 788.0Q640 885 506 885Q375 885 316.5 792.0Q258 699 258 475Q258 248 317.5 153.5Q377 59 506 59Q638 59 702.0 157.0Q766 255 766 475Z"/>
    <path transform="translate(2554.2243)" d="M367 70 528 45V0H41V45L201 70V1352L41 1376V1421H367Z"/>
    <path transform="translate(3149.3525)" d="M367 70 528 45V0H41V45L201 70V1352L41 1376V1421H367Z"/>
    <path transform="translate(3744.4807)" d="M260 473V455Q260 317 290.5 240.5Q321 164 384.5 124.0Q448 84 551 84Q605 84 679.0 93.0Q753 102 801 113V57Q753 26 670.5 3.0Q588 -20 502 -20Q283 -20 181.5 98.0Q80 216 80 477Q80 723 183.0 844.0Q286 965 477 965Q838 965 838 555V473ZM477 885Q373 885 317.5 801.0Q262 717 262 553H664Q664 732 618.0 808.5Q572 885 477 885Z"/>
  </g>
  <g id="studios" fill="#fff" transform="matrix(0 -0.05078125 -0.05078125 0 774.9844 377.0822)">
    <path transform="translate(0.0000)" d="M1272 389Q1272 194 1119.5 87.0Q967 -20 690 -20Q175 -20 93 338L278 375Q310 248 414.0 188.5Q518 129 697 129Q882 129 982.5 192.5Q1083 256 1083 379Q1083 448 1051.5 491.0Q1020 534 963 562Q906 590 827.0 609.0Q748 628 652 650Q541 675 466.5 699.0Q392 723 344.0 749.5Q296 776 262 806Q212 852 185.5 913.0Q159 974 159 1053Q159 1234 297.5 1332.0Q436 1430 694 1430Q934 1430 1061.0 1356.5Q1188 1283 1239 1106L1051 1073Q1020 1185 933.0 1235.5Q846 1286 692 1286Q523 1286 434.0 1230.0Q345 1174 345 1063Q345 998 379.5 955.5Q414 913 479 884Q540 855 738 811Q819 792 898.0 771.5Q977 751 1047 720Q1088 703 1125.5 678.5Q1163 654 1191 622Q1229 580 1250.5 523.0Q1272 466 1272 389Z"/>
    <path transform="translate(1385.7083)" d="M554 8Q466 -16 372 -16Q264 -16 210.0 45.5Q156 107 156 229V951H31V1082H163L216 1324H336V1082H536V951H336V268Q336 190 361.5 158.5Q387 127 450 127Q484 127 554 141Z"/>
    <path transform="translate(1974.7446)" d="M822 185Q760 73 678.5 26.5Q597 -20 476 -20Q298 -20 215.5 68.5Q133 157 133 361V1082H314V396Q314 234 364.5 176.5Q415 119 537 119Q667 119 742.0 208.0Q817 297 817 455V1082H997V231Q997 137 998.5 79.0Q1000 21 1003 0H833Q832 5 829.5 47.0Q827 89 825 185Z"/>
    <path transform="translate(3133.1249)" d="M835 0Q833 11 830.5 41.5Q828 72 826.5 109.0Q825 146 825 174H821Q771 70 688.5 25.0Q606 -20 484 -20Q279 -20 182.5 118.0Q86 256 86 536Q86 819 185.5 960.5Q285 1102 484 1102Q607 1102 689.0 1057.0Q771 1012 821 914H823L821 1035V1484H1001V223Q1001 138 1002.5 82.5Q1004 27 1007 0ZM275 542Q275 315 335.0 217.0Q395 119 530 119Q683 119 752.0 225.0Q821 331 821 554Q821 769 752.0 869.0Q683 969 532 969Q396 969 335.5 868.5Q275 768 275 542Z"/>
    <path transform="translate(4291.5052)" d="M317 1484V1312H137V1484ZM317 1082V0H137V1082Z"/>
    <path transform="translate(4765.8535)" d="M1053 542Q1053 258 928.0 119.0Q803 -20 565 -20Q328 -20 207.0 124.5Q86 269 86 542Q86 822 207.5 962.0Q329 1102 571 1102Q819 1102 936.0 965.5Q1053 829 1053 542ZM864 542Q864 766 797.5 867.5Q731 969 574 969Q416 969 345.5 865.5Q275 762 275 542Q275 328 344.5 220.5Q414 113 563 113Q725 113 794.5 217.0Q864 321 864 542Z"/>
    <path transform="translate(5924.2338)" d="M950 299Q950 146 834.5 63.0Q719 -20 511 -20Q309 -20 199.5 46.5Q90 113 57 254L216 285Q239 198 311.0 157.5Q383 117 511 117Q648 117 711.5 159.0Q775 201 775 285Q775 349 731.0 389.0Q687 429 589 455Q473 486 404.5 506.0Q336 526 299.0 540.5Q262 555 240 568Q174 606 137.0 661.0Q100 716 100 796Q100 944 205.5 1021.5Q311 1099 513 1099Q692 1099 797.5 1036.0Q903 973 931 834L769 814Q754 886 688.5 924.5Q623 963 513 963Q391 963 333.0 926.0Q275 889 275 814Q275 759 308.0 723.5Q341 688 434 665Q559 635 672.0 599.5Q785 564 834 529Q891 488 920.5 432.5Q950 377 950 299Z"/>
  </g>
</svg>
